<svg xmlns="http://www.w3.org/2000/svg" viewBox="0 0 524.2 369.43">
  <path fill="#ffffff" d="M265.41,114.04h70.67v70.67h0c-39.01,0-70.67-31.67-70.67-70.67h0Z"/>
  <path fill="#ffffff" d="M188.11,114.04h0c39.01,0,70.67,31.67,70.67,70.67h0c-39.01,0-70.67-31.67-70.67-70.67h0Z" transform="translate(372.83 -74.07) rotate(90)"/>
  <path fill="#ffffff" d="M265.41,184.72h70.67v70.67h0c-39.01,0-70.67-31.67-70.67-70.67h0Z" transform="translate(601.49 440.11) rotate(180)"/>
  <path fill="#ffffff" d="M188.11,184.72h0c39.01,0,70.67,31.67,70.67,70.67h0c-39.01,0-70.67-31.67-70.67-70.67h0Z"/>
</svg>
