<?xml version="1.0" encoding="UTF-8"?>
<svg id="Layer_1" xmlns="http://www.w3.org/2000/svg" version="1.1" viewBox="0 0 524.2 369.43">
  <!-- Generator: Adobe Illustrator 29.2.1, SVG Export Plug-In . SVG Version: 2.1.0 Build 116)  -->
  <defs>
    <style>
      .st0 {
        fill: #003d48;
      }
    </style>
  </defs>
  <path class="st0" d="M265.41,114.04h70.67v70.67h0c-39.01,0-70.67-31.67-70.67-70.67h0Z"/>
  <path class="st0" d="M188.11,114.04h0c39.01,0,70.67,31.67,70.67,70.67h0c-39.01,0-70.67-31.67-70.67-70.67h0Z" transform="translate(372.83 -74.07) rotate(90)"/>
  <path class="st0" d="M265.41,184.72h70.67v70.67h0c-39.01,0-70.67-31.67-70.67-70.67h0Z" transform="translate(601.49 440.11) rotate(180)"/>
  <path class="st0" d="M188.11,184.72h0c39.01,0,70.67,31.67,70.67,70.67h0c-39.01,0-70.67-31.67-70.67-70.67h0Z"/>
</svg>